<svg width="131" height="25" viewBox="0 0 131 25" fill="none" xmlns="http://www.w3.org/2000/svg">
<path d="M4.39028 7.53672C5.89532 7.53672 7.11217 6.41595 7.11217 5.00697C7.11217 3.59799 5.89532 2.44519 4.39028 2.44519C2.91726 2.44519 1.70041 3.59799 1.70041 5.00697C1.70041 6.41595 2.91726 7.53672 4.39028 7.53672ZM6.59981 20.6658V8.97772L0.00323486 11.0271V11.3153C1.63637 11.3153 2.30884 11.7957 2.30884 13.3968V20.7299C2.30884 22.299 1.70041 23.2917 0.0672793 23.2917V23.7079H8.80935V23.2917C7.20824 23.2917 6.59981 22.299 6.59981 20.6658Z" fill="#161616"/>
<path d="M24.092 20.6338V0.972168L17.4634 3.02159V3.30979C19.0965 3.30979 19.769 3.82215 19.769 5.42326V10.4187C19.4808 9.84232 18.6482 8.9457 17.1111 8.9457C13.8769 8.9457 10.2904 12.0519 10.2904 17.3675C10.2904 20.9861 12.4999 23.9961 15.7662 23.9961C17.7516 23.9961 19.2566 22.5872 19.769 21.5625V21.6585L19.897 23.6759H26.3015V23.2596C24.6684 23.2596 24.092 22.2669 24.092 20.6338ZM17.8476 22.0748C15.8943 22.0748 14.6774 19.3209 14.6774 15.6383C14.6774 12.8204 15.8302 9.71424 17.5914 9.71424C18.7442 9.71424 19.769 11.3153 19.769 13.1726V20.2495C19.6409 20.7939 19.1285 22.0748 17.8476 22.0748Z" fill="#161616"/>
<path d="M49.6127 11.4114C49.6127 11.4114 42.3756 7.95301 42.2476 7.88897C41.0947 7.34459 39.6858 6.41595 39.6858 4.52663C39.6858 3.11766 40.7425 2.06092 42.5998 2.06092C44.4251 2.06092 45.6419 3.02159 46.7627 4.23843C47.6273 5.1991 48.4599 6.19179 49.3885 7.05639C49.9649 7.63279 50.8295 8.17717 51.8542 8.3693H51.9823C51.3419 6.19179 50.6054 3.4699 50.8615 1.26037H50.6374C49.7408 1.70868 49.3565 2.0289 48.1076 2.0289C46.3464 2.0289 44.8093 1.26037 42.6318 1.26037C39.5577 1.26037 36.8358 3.88619 36.8358 7.12044C36.8358 10.1946 39.3015 12.0519 40.8706 12.7884C41.0307 12.8524 46.8908 15.6704 47.243 15.8305C47.9795 16.1827 50.4132 17.1434 50.4132 19.6411C50.4132 21.9147 48.588 23.1315 46.6346 23.1315C43.1122 23.1315 42.2155 15.9906 35.4268 15.9906C36.5796 18.3923 36.7077 21.2743 36.4515 24.0282H36.7718C37.6043 23.1956 38.597 22.6832 39.6217 22.6832C41.511 22.6832 43.6886 24.0282 46.5706 24.0282C50.093 24.0282 53.3593 21.3063 53.3593 17.5917C53.3593 14.8378 51.3739 12.244 49.6127 11.4114Z" fill="#161616"/>
<path d="M65.0959 20.9861C64.9038 21.4664 64.5195 22.395 63.4307 22.395C62.5341 22.395 61.8296 21.7866 61.8296 20.5057V9.87435H64.8077V9.26592H61.8296V3.85417H61.3813C60.5808 6.03168 58.1791 9.13784 55.0729 9.26592V9.87435H57.5387V20.5057C57.5387 22.5872 58.6915 23.9961 61.4454 23.9961C63.5588 23.9961 65.0639 22.5551 65.5762 20.9861H65.0959Z" fill="#161616"/>
<path d="M82.9488 20.7619V8.97772L76.3522 10.9951V11.3153C77.9854 11.3153 78.6578 11.7957 78.6578 13.3968L78.6258 21.0821L78.2736 21.2743C77.6331 21.6265 76.7365 22.299 75.7118 22.299C74.3668 22.299 73.9185 21.3383 73.9185 19.8653V8.97772L67.322 10.9951V11.3153C68.9551 11.3153 69.6276 11.7957 69.6276 13.3968V20.954C69.6276 22.6192 70.6843 23.9961 72.7337 23.9961C74.4949 23.9961 76.096 23.1956 78.6258 21.8186V23.6759H84.9662V23.2596C83.3331 23.2596 82.9488 22.395 82.9488 20.7619Z" fill="#161616"/>
<path d="M100.733 20.6338V0.972168L94.104 3.02159V3.30979C95.7372 3.30979 96.4096 3.82215 96.4096 5.42326V10.4187C96.1214 9.84232 95.2889 8.9457 93.7518 8.9457C90.5175 8.9457 86.9311 12.0519 86.9311 17.3675C86.9311 20.9861 89.1406 23.9961 92.4069 23.9961C94.3922 23.9961 95.8973 22.5872 96.4096 21.5625V21.6585L96.5377 23.6759H102.942V23.2596C101.309 23.2596 100.733 22.2669 100.733 20.6338ZM94.4883 22.0748C92.535 22.0748 91.3181 19.3209 91.3181 15.6383C91.3181 12.8204 92.4709 9.71424 94.2321 9.71424C95.3849 9.71424 96.4096 11.3153 96.4096 13.1726V20.2495C96.2816 20.7939 95.7692 22.0748 94.4883 22.0748Z" fill="#161616"/>
<path d="M109.182 7.53672C110.687 7.53672 111.904 6.41595 111.904 5.00697C111.904 3.59799 110.687 2.44519 109.182 2.44519C107.709 2.44519 106.492 3.59799 106.492 5.00697C106.492 6.41595 107.709 7.53672 109.182 7.53672ZM111.391 20.6658V8.97772L104.795 11.0271V11.3153C106.428 11.3153 107.1 11.7957 107.1 13.3968V20.7299C107.1 22.299 106.492 23.2917 104.859 23.2917V23.7079H113.601V23.2917C112 23.2917 111.391 22.299 111.391 20.6658Z" fill="#161616"/>
<path d="M123.017 8.9457C118.951 8.9457 115.268 11.7957 115.268 16.4709C115.268 21.1782 118.951 23.9961 123.017 23.9961C127.116 23.9961 130.799 21.1782 130.799 16.4709C130.799 11.7957 127.116 8.9457 123.017 8.9457ZM123.017 23.2596C121 23.2596 119.879 20.6018 119.879 16.4709C119.879 12.276 121 9.68221 123.017 9.68221C125.035 9.68221 126.156 12.276 126.156 16.4709C126.156 20.6658 125.035 23.2596 123.017 23.2596Z" fill="#161616"/>
<circle cx="4.42682" cy="4.86816" r="3" fill="#D3A265"/>
</svg>
