<svg width="18" height="18" viewBox="0 0 18 18" fill="none" xmlns="http://www.w3.org/2000/svg">
<path d="M17.28 0H0.72C0.32175 0 0 0.32175 0 0.72V17.28C0 17.6782 0.32175 18 0.72 18H17.28C17.6782 18 18 17.6782 18 17.28V0.72C18 0.32175 17.6782 0 17.28 0ZM5.33925 15.3383H2.6685V6.74775H5.33925V15.3383ZM4.005 5.57325C3.69883 5.57325 3.39954 5.48246 3.14498 5.31236C2.89041 5.14227 2.692 4.9005 2.57483 4.61764C2.45767 4.33478 2.42701 4.02353 2.48674 3.72325C2.54647 3.42297 2.69391 3.14714 2.9104 2.93065C3.12689 2.71416 3.40272 2.56672 3.703 2.50699C4.00328 2.44726 4.31453 2.47792 4.59739 2.59508C4.88025 2.71225 5.12202 2.91066 5.29212 3.16523C5.46221 3.41979 5.553 3.71908 5.553 4.02525C5.55075 4.88025 4.85775 5.57325 4.005 5.57325ZM15.3383 15.3383H12.6697V11.16C12.6697 10.1632 12.6518 8.883 11.2815 8.883C9.89325 8.883 9.6795 9.9675 9.6795 11.088V15.3383H7.01325V6.74775H9.57375V7.92225H9.60975C9.96525 7.24725 10.836 6.534 12.1365 6.534C14.841 6.534 15.3383 8.31375 15.3383 10.6267V15.3383Z" fill="#D3A265"/>
</svg>
