<svg width="18" height="18" viewBox="0 0 18 18" fill="none" xmlns="http://www.w3.org/2000/svg">
<path d="M1 0C0.447716 0 0 0.447715 0 1V17C0 17.5523 0.447715 18 1 18H17C17.5523 18 18 17.5523 18 17V1C18 0.447716 17.5523 0 17 0H1ZM14.4 6.3V6.6375C14.4 10.35 11.5875 14.5125 6.525 14.5125C4.95 14.5125 3.4875 14.0625 2.25 13.275H2.925C4.275 13.275 5.4 12.825 6.4125 12.0375C5.175 12.0375 4.1625 11.25 3.825 10.125H4.3875C4.6125 10.125 4.8375 10.125 5.0625 10.0125C3.825 9.7875 2.8125 8.6625 2.8125 7.3125C3.15 7.5375 3.6 7.65 4.05 7.65C3.2625 7.2 2.8125 6.3 2.8125 5.4C2.8125 4.8375 2.925 4.3875 3.15 4.05C4.5 5.7375 6.6375 6.75 8.8875 6.8625C8.8875 6.6375 8.775 6.4125 8.775 6.1875C8.775 4.6125 10.0125 3.375 11.5875 3.375C12.375 3.375 13.05 3.7125 13.6125 4.275C14.2875 4.1625 14.85 3.9375 15.4125 3.6C15.1875 4.275 14.7375 4.8375 14.175 5.175C14.7375 5.0625 15.3 4.95 15.75 4.725C15.4125 5.4 14.9625 5.85 14.4 6.3Z" fill="#D3A265"/>
</svg>
